<svg width="196" height="51" viewBox="0 0 196 51" fill="none" xmlns="http://www.w3.org/2000/svg">
<path d="M6.21602 7.05C5.34935 7.05 4.74935 7.2 4.41602 7.5C4.04935 7.8 3.83268 8.35 3.76602 9.15L0.0160157 9.1C0.0160157 7.1 0.632682 5.56667 1.86602 4.5C2.86602 3.6 4.33268 3.15 6.26602 3.15H17.516C19.4494 3.15 21.1994 3.55 22.766 4.35C24.366 5.15 25.616 6.25 26.516 7.65C27.416 9.05 27.866 10.65 27.866 12.45C27.866 14.05 27.516 15.4333 26.816 16.6C26.116 17.7667 25.1327 18.65 23.866 19.25C23.466 19.45 22.8827 19.6333 22.116 19.8C22.5494 19.8 23.116 19.9167 23.816 20.15C24.5494 20.3833 25.2827 20.7 26.016 21.1C27.016 21.6333 27.816 22.5333 28.416 23.8C29.0493 25.0667 29.366 26.6667 29.366 28.6C29.366 31.9 28.1493 34.3833 25.716 36.05C23.2827 37.6833 20.0494 38.5 16.016 38.5H14.366C12.5993 38.5 10.916 38.4167 9.31602 38.25L6.21602 37.9V7.05ZM16.216 34.7C19.1494 34.7 21.3994 34.2167 22.966 33.25C24.566 32.2833 25.366 30.7167 25.366 28.55C25.366 26.45 24.6494 24.8 23.216 23.6C21.7827 22.3667 19.9827 21.75 17.816 21.75H13.116L13.166 18.05L17.466 18C19.3993 18 20.9493 17.5 22.116 16.5C23.2494 15.5 23.816 14.15 23.816 12.45C23.816 10.75 23.2993 9.41667 22.266 8.45C21.2327 7.45 19.866 6.95 18.166 6.95H10.316V34.45C12.616 34.6167 14.5827 34.7 16.216 34.7ZM45.2691 38.5C42.8025 38.5 40.6858 37.9667 38.9191 36.9C37.1858 35.8 35.8691 34.3333 34.9691 32.5C34.0691 30.6333 33.6191 28.55 33.6191 26.25C33.6191 23.9833 34.0525 21.7833 34.9191 19.65C35.7858 17.5167 37.0858 15.75 38.8191 14.35C40.5525 12.95 42.6858 12.25 45.2191 12.25C46.8858 12.25 48.4358 12.5833 49.8691 13.25C51.3025 13.8833 52.4358 14.8167 53.2691 16.05C54.1358 17.25 54.5691 18.65 54.5691 20.25C54.5691 22.8167 53.5191 24.8333 51.4191 26.3C49.3191 27.7667 46.5858 28.4667 43.2191 28.4L38.0191 28.3C38.3858 30.3667 39.1858 31.9667 40.4191 33.1C41.6858 34.2 43.3525 34.75 45.4191 34.75C48.1191 34.75 50.6858 33.85 53.1191 32.05L55.3691 34.9C52.2025 37.3 48.8358 38.5 45.2691 38.5ZM43.2191 24.8C45.4525 24.8 47.2191 24.4167 48.5191 23.65C49.8191 22.8833 50.4691 21.7333 50.4691 20.2C50.4691 18.8333 49.9691 17.7833 48.9691 17.05C48.0025 16.3167 46.8358 15.95 45.4691 15.95C43.9358 15.95 42.6025 16.4167 41.4691 17.35C40.3358 18.25 39.4691 19.3833 38.8691 20.75C38.2691 22.1167 37.9191 23.4667 37.8191 24.8H43.2191ZM71.4598 12.15C72.4264 12.15 73.5764 12.3167 74.9098 12.65L74.8098 16.6C73.4764 16.2333 72.3931 16.05 71.5598 16.05C69.9931 16.05 68.7764 16.4167 67.9098 17.15C66.9098 17.95 66.0431 19.0167 65.3098 20.35V38.05H61.2098V20.35C61.2098 17.75 60.5098 15.85 59.1098 14.65L61.8598 12.1C62.3598 12.4 62.8598 12.85 63.3598 13.45C63.8931 14.05 64.3264 14.7333 64.6598 15.5C65.3931 14.5667 66.1431 13.85 66.9098 13.35C68.1764 12.55 69.6931 12.15 71.4598 12.15ZM83.5086 33.55C83.5086 33.9167 83.6253 34.2333 83.8586 34.5C84.0919 34.7333 84.3919 34.85 84.7586 34.85C85.2919 34.85 85.7086 34.55 86.0086 33.95L88.9586 35.8C88.4919 36.6667 87.8753 37.35 87.1086 37.85C86.3753 38.3167 85.5086 38.55 84.5086 38.55C82.9419 38.55 81.6919 38.1 80.7586 37.2C79.8586 36.2667 79.4086 35 79.4086 33.4V12.95H83.5086V33.55ZM81.4086 8.1C80.7419 8.1 80.1419 7.83333 79.6086 7.3C79.0753 6.76666 78.8086 6.16666 78.8086 5.5C78.8086 4.8 79.0753 4.18333 79.6086 3.65C80.1419 3.11667 80.7419 2.85 81.4086 2.85C82.1086 2.85 82.7253 3.11667 83.2586 3.65C83.8253 4.18333 84.1086 4.8 84.1086 5.5C84.1086 6.16666 83.8253 6.76666 83.2586 7.3C82.7253 7.83333 82.1086 8.1 81.4086 8.1ZM93.4293 12.15C93.4293 8.35 94.1293 5.51666 95.5293 3.65C96.9626 1.78333 99.1126 0.849998 101.979 0.849998C104.279 0.849998 106.113 1.56666 107.479 3C108.846 4.43333 109.529 6.36667 109.529 8.8C109.529 10.6 109.146 12.2 108.379 13.6C107.613 15 106.529 16.1 105.129 16.9C103.729 17.6667 102.129 18.05 100.329 18.05C99.8293 18.05 99.446 18.0333 99.1793 18L97.5293 17.85V24.55H104.729V28.25H97.5293V50.6H93.4293V12.15ZM99.1793 14.3C101.113 14.3 102.629 13.8167 103.729 12.85C104.863 11.85 105.429 10.4833 105.429 8.75C105.429 7.41667 105.113 6.38333 104.479 5.65C103.846 4.91667 102.979 4.55 101.879 4.55C100.413 4.55 99.3126 5.25 98.5793 6.65C97.8793 8.05 97.5293 10.2167 97.5293 13.15V14.3H99.1793ZM122.921 38.5C120.554 38.5 118.421 37.9333 116.521 36.8C114.654 35.6667 113.188 34.1167 112.121 32.15C111.054 30.15 110.521 27.9 110.521 25.4C110.521 22.9 111.054 20.65 112.121 18.65C113.221 16.6167 114.704 15.0333 116.571 13.9C118.471 12.7333 120.604 12.15 122.971 12.15C125.338 12.15 127.454 12.7167 129.321 13.85C131.221 14.9833 132.704 16.5667 133.771 18.6C134.838 20.6 135.371 22.85 135.371 25.35C135.371 27.85 134.838 30.1 133.771 32.1C132.704 34.1 131.221 35.6667 129.321 36.8C127.421 37.9333 125.288 38.5 122.921 38.5ZM122.971 34.8C125.471 34.8 127.471 33.9333 128.971 32.2C130.504 30.4667 131.271 28.1833 131.271 25.35C131.271 22.4833 130.504 20.1833 128.971 18.45C127.471 16.7167 125.471 15.85 122.971 15.85C121.338 15.85 119.888 16.25 118.621 17.05C117.354 17.85 116.371 18.9667 115.671 20.4C114.971 21.8333 114.621 23.4833 114.621 25.35C114.621 28.1833 115.388 30.4667 116.921 32.2C118.454 33.9333 120.471 34.8 122.971 34.8ZM151.583 38.5C149.217 38.5 147.083 37.9333 145.183 36.8C143.317 35.6667 141.85 34.1167 140.783 32.15C139.717 30.15 139.183 27.9 139.183 25.4C139.183 22.9 139.717 20.65 140.783 18.65C141.883 16.6167 143.367 15.0333 145.233 13.9C147.133 12.7333 149.267 12.15 151.633 12.15C154 12.15 156.117 12.7167 157.983 13.85C159.883 14.9833 161.367 16.5667 162.433 18.6C163.5 20.6 164.033 22.85 164.033 25.35C164.033 27.85 163.5 30.1 162.433 32.1C161.367 34.1 159.883 35.6667 157.983 36.8C156.083 37.9333 153.95 38.5 151.583 38.5ZM151.633 34.8C154.133 34.8 156.133 33.9333 157.633 32.2C159.167 30.4667 159.933 28.1833 159.933 25.35C159.933 22.4833 159.167 20.1833 157.633 18.45C156.133 16.7167 154.133 15.85 151.633 15.85C150 15.85 148.55 16.25 147.283 17.05C146.017 17.85 145.033 18.9667 144.333 20.4C143.633 21.8333 143.283 23.4833 143.283 25.35C143.283 28.1833 144.05 30.4667 145.583 32.2C147.117 33.9333 149.133 34.8 151.633 34.8ZM178.995 38.5C176.595 38.5 174.562 37.9167 172.895 36.75C171.229 35.55 169.979 33.9667 169.145 32C168.345 30 167.945 27.8167 167.945 25.45C167.945 22.9167 168.445 20.65 169.445 18.65C170.479 16.6167 171.929 15.0333 173.795 13.9C175.695 12.7333 177.895 12.15 180.395 12.15C181.395 12.15 183.095 12.2667 185.495 12.5V1.6H189.595V33.35C189.595 33.8167 189.695 34.1833 189.895 34.45C190.129 34.6833 190.462 34.8 190.895 34.8C191.462 34.8 191.912 34.5 192.245 33.9L195.095 35.75C194.662 36.6167 194.012 37.3 193.145 37.8C192.312 38.2667 191.412 38.5 190.445 38.5C189.245 38.4667 188.212 38.1 187.345 37.4C186.479 36.7 186.012 35.8833 185.945 34.95C185.312 36.0833 184.345 36.9667 183.045 37.6C181.745 38.2 180.395 38.5 178.995 38.5ZM178.995 34.8C180.295 34.8 181.462 34.4667 182.495 33.8C183.529 33.1333 184.329 32.2333 184.895 31.1C185.295 30.2333 185.495 29.3 185.495 28.3V16.45C185.195 16.4167 184.645 16.3167 183.845 16.15C183.045 15.9833 182.229 15.9 181.395 15.9C178.295 15.9 175.962 16.75 174.395 18.45C172.829 20.15 172.045 22.3833 172.045 25.15C172.045 27.8833 172.662 30.1833 173.895 32.05C175.162 33.8833 176.862 34.8 178.995 34.8Z" fill="url(#paint0_linear_1_5904)"/>
<defs>
<linearGradient id="paint0_linear_1_5904" x1="97" y1="-10" x2="97" y2="53" gradientUnits="userSpaceOnUse">
<stop stop-color="#0063DA"/>
<stop offset="1" stop-color="#FB30FF"/>
</linearGradient>
</defs>
</svg>
